#!OML:ASF E:\emotionWalksFemale\Project 1\Capture day 1\Session 1\Female1.ASF
:FULLY-SPECIFIED
:DEGREES
213
root 7.22962 15.5182 26.5286 -179.924 0.498726 -185.106
lowerback 6.23319 1.61814 -3.61336
upperback -3.19415 1.82274 -3.02791
thorax -6.8604 1.05787 -1.37517
lowerneck -4.12478 -3.10965 -7.58444
upperneck 16.2649 -5.23719 5.99017
head 5.9302 -2.90234 2.77863
rclavicle -1.01629e-014 -4.37326e-014
rhumerus -46.0059 16.083 -97.7047
rradius 34.9638
rwrist 14.8603
rhand -7.35094 -49.8356
rfingers 7.12502
rthumb 18.5333 -78.9727
lclavicle -1.01629e-014 -4.37326e-014
lhumerus -38.9432 -1.0284 81.7139
lradius 35.0229
lwrist -11.6326
lhand -8.45292 -35.714
lfingers 7.12502
lthumb 17.473 -6.47932
rfemur -13.5336 -7.61623 15.8665
rtibia 69.7903
rfoot 2.64501 -16.1256
rtoes 18.8373
lfemur -5.44616 -18.0539 -30.4684
ltibia 11.1236
lfoot -12.7631 20.6743
ltoes -19.0614
214
root 7.21674 15.5143 26.4329 -179.993 0.486703 -185.06
lowerback 6.32899 1.57158 -3.5536
upperback -3.17969 1.75808 -2.97962
thorax -6.89939 1.02224 -1.35274
lowerneck -4.05169 -3.03611 -7.62543
upperneck 16.2998 -5.1528 6.01502
head 5.92372 -2.86763 2.80044
rclavicle 8.02593e-015 7.95139e-015
rhumerus -45.6253 15.4693 -97.4728
rradius 35.475
rwrist 12.3079
rhand -6.34834 -52.9202
rfingers 7.12502
rthumb 19.4975 -81.9626
lclavicle 8.02593e-015 7.95139e-015
lhumerus -38.3735 -0.357233 81.3918
lradius 34.4629
lwrist -12.7327
lhand -8.44142 -35.7656
lfingers 7.12502
lthumb 17.4841 -6.53183
rfemur -14.7725 -7.72143 16.1138
rtibia 70.2014
rfoot 1.03965 -15.9444
rtoes 17.0766
lfemur -5.24626 -17.9951 -30.6347
ltibia 11.7111
lfoot -13.4654 20.6152
ltoes -19.308
215
root 7.20569 15.5089 26.3348 -179.955 0.589645 -184.921
lowerback 6.30308 1.53285 -3.38221
upperback -3.22352 1.72004 -2.92808
thorax -6.92668 0.995465 -1.38987
lowerneck -3.80872 -2.97983 -7.4356
upperneck 16.0952 -5.06065 5.79952
head 5.80156 -2.82757 2.71137
rclavicle -1.81143e-014 5.96354e-015
rhumerus -45.6389 14.9741 -97.3456
rradius 35.5587
rwrist 11.4649
rhand -6.9772 -53.1936
rfingers 7.12502
rthumb 18.8927 -82.2961
lclavicle -1.81143e-014 5.96354e-015
lhumerus -37.9526 0.111203 81.0645
lradius 34.0532
lwrist -13.7755
lhand -7.88921 -35.4786
lfingers 7.12502
lthumb 18.0154 -6.29298
rfemur -16.1255 -7.63045 16.542
rtibia 70.4697
rfoot -0.781899 -16.1
rtoes 14.8929
lfemur -5.10057 -18.058 -30.6663
ltibia 12.202
lfoot -14.3278 20.6958
ltoes -18.0123
216
root 7.19477 15.4994 26.2351 -179.908 0.614322 -184.906
lowerback 6.23741 1.4848 -3.34444
upperback -3.24864 1.66245 -2.91908
thorax -6.91428 0.965907 -1.39285
lowerneck -3.73991 -2.95205 -7.1295
upperneck 16.0754 -5.00307 5.46299
head 5.76466 -2.80569 2.55899
rclavicle 7.62836e-015 7.95139e-015
rhumerus -45.715 14.4486 -97.1965
rradius 35.4205
rwrist 11.7736
rhand -7.5916 -53.2118
rfingers 7.12502
rthumb 18.3018 -82.3708
lclavicle 7.62836e-015 7.95139e-015
lhumerus -37.5465 0.288489 80.8684
lradius 33.8481
lwrist -14.4413
lhand -7.29318 -34.8207
lfingers 7.12502
lthumb 18.5888 -5.68883
rfemur -17.3973 -7.58858 16.8303
rtibia 70.5625
rfoot -2.81257 -16.3321
rtoes 14.7549
lfemur -4.94599 -18.2099 -30.8527
ltibia 12.6993
lfoot -15.1201 20.8235
ltoes -16.9925
217
root 7.18523 15.4884 26.1334 -180.013 0.610267 -184.982
lowerback 6.21353 1.46898 -3.54848
upperback -3.15929 1.62682 -2.84275
thorax -6.81384 0.956236 -1.19036
lowerneck -3.75591 -2.92656 -6.99142
upperneck 16.0414 -4.93509 5.23052
head 5.74418 -2.77694 2.46707
rclavicle 3.72721e-016 1.51076e-014
rhumerus -45.3524 13.7601 -96.7525
rradius 35.167
rwrist 12.3072
rhand -5.79777 -54.9709
rfingers 7.12502
rthumb 20.0268 -83.9588
lclavicle 3.72721e-016 1.51076e-014
lhumerus -37.0387 0.481106 80.8623
lradius 33.6431
lwrist -15.0589
lhand -7.08578 -34.3159
lfingers 7.12502
lthumb 18.7883 -5.2033
rfemur -18.4235 -7.5397 17.0073
rtibia 70.5105
rfoot -4.70967 -16.3829
rtoes 14.4287
lfemur -4.70995 -18.2837 -31.1862
ltibia 13.3577
lfoot -15.9007 20.9529
ltoes -16.9847
218
root 7.18329 15.4874 26.019 -180.322 -0.0272721 -184.852
lowerback 6.34613 1.39187 -3.48534
upperback -2.99393 1.22712 -2.7416
thorax -6.71903 0.629008 -1.05527
lowerneck -3.70797 -2.84245 -6.92049
upperneck 15.8894 -4.79013 5.10922
head 5.67497 -2.70537 2.42828
rclavicle 3.48122e-014 -2.90226e-014
rhumerus -44.985 13.1991 -96.4783
rradius 34.8492
rwrist 12.6691
rhand -8.17677 -53.6389
rfingers 7.12502
rthumb 17.7387 -82.8498
lclavicle 3.48122e-014 -2.90226e-014
lhumerus -36.735 0.73609 80.757
lradius 33.5057
lwrist -15.8562
lhand -7.43082 -34.2454
lfingers 7.12502
lthumb 18.4564 -5.10099
rfemur -18.8125 -7.95529 17.4368
rtibia 70.1628
rfoot -6.75738 -16.73
rtoes 12.504
lfemur -4.11689 -18.3481 -31.3436
ltibia 13.9518
lfoot -19.1388 19.8097
ltoes -4.33562
